<svg width="140" height="45" viewBox="0 0 140 45" fill="none" xmlns="http://www.w3.org/2000/svg">
<path d="M39.9868 24.1859V19.5917L26.3452 6.11554L12.4049 19.2373V12.0157L22.47 2.29753L20.1432 0L9.09159 10.6715V32.997H3.70907V16.4563L0.395732 19.6826V36.2234H28.1157V41.5546H0V44.781H31.4263V27.504L36.6735 32.708V45H39.9868V31.3884L22.5941 14.1387L26.2901 10.6606L39.9868 24.1859ZM28.1129 24.2159V32.997H12.4049V23.7269L20.2113 16.379L28.1129 24.2159Z" fill="#F53645"/>
<path d="M50.0705 21.0759C48.1544 21.0759 47.5776 20.267 47.5776 18.5929C47.5776 16.9852 48.1087 16.1654 50.0705 16.1654H55.4596V18.0085H50.5325C50.0127 18.0085 49.8279 18.2103 49.8279 18.7356C49.8279 19.2609 50.0145 19.4554 50.5325 19.4554H53.256C55.1712 19.4554 55.7368 20.2306 55.7368 21.8938C55.7368 23.557 55.1824 24.3767 53.256 24.3767H47.656V22.5482H52.8024C53.3101 22.5482 53.5071 22.3346 53.5071 21.7957C53.5071 21.2331 53.2877 21.0759 52.8024 21.0759H50.0705Z" fill="#EDEDED"/>
<path d="M60.7339 24.3795C58.0449 24.3795 56.8913 23.4134 56.8913 21.1322V16.1654H59.1416V21.1368C59.1416 22.1928 59.5224 22.6091 60.7684 22.6091H61.53C62.7433 22.6091 63.1456 22.1928 63.1456 21.1368V16.1654H65.3501V21.1368C65.3501 23.4179 64.1844 24.384 61.4955 24.384L60.7339 24.3795Z" fill="#EDEDED"/>
<path d="M69.0891 21.8402V24.3795H66.8267V16.1654H71.9964C73.7044 16.1654 75.2855 16.6598 75.2855 19.0419C75.2855 21.4239 73.6699 21.8402 71.9964 21.8402H69.0891ZM72.0673 17.974H69.0891V20.098H72.0673C72.6096 20.098 73.0595 19.8962 73.0595 19.0419C73.0595 18.1876 72.6133 17.974 72.0673 17.974Z" fill="#EDEDED"/>
<path d="M78.7369 21.6602V24.3795H76.4755V16.1654H81.76C83.4568 16.1654 84.9912 16.559 84.9912 18.7274C84.9912 19.6599 84.7028 20.2779 84.2063 20.6714C84.7261 20.9295 85.0463 21.3685 85.0463 22.1101V24.3822H82.7867V22.3573C82.7867 21.8293 82.6373 21.6602 81.9103 21.6602H78.7369ZM81.8421 17.974H78.7369V20.0089H81.8421C82.3844 20.0089 82.8231 19.8171 82.8231 18.9855C82.8231 18.154 82.3844 17.974 81.8421 17.974Z" fill="#EDEDED"/>
<path d="M94.3171 21.065H88.8104V22.6045H94.36V24.3795H86.5471V16.1654H94.3367V17.9404H88.8085V19.4799H94.3152L94.3171 21.065Z" fill="#EDEDED"/>
<path d="M100.191 24.3795L97.8955 18.9265V24.3795H95.8291V16.1654H98.84L101.297 22.031L103.825 16.1654H106.791V24.3795H104.725V18.9556L102.405 24.3831L100.191 24.3795Z" fill="#EDEDED"/>
<path d="M116.187 21.065H110.68V22.6045H116.231V24.3795H108.419V16.1654H116.208V17.9404H110.68V19.4799H116.187V21.065Z" fill="#EDEDED"/>
<path d="M49.84 28.4929V36.7078H47.5776V28.4929H49.84Z" fill="#EDEDED"/>
<path d="M58.3333 34.3148V28.4983H60.4221V36.7133H57.68L53.5733 31.0948V36.7133H51.4733V28.4929H54.1511L58.3333 34.3148Z" fill="#EDEDED"/>
<path d="M64.1844 33.406C62.2692 33.406 61.6915 32.5962 61.6915 30.9222C61.6915 29.3153 62.2225 28.4947 64.1844 28.4947H69.5735V30.3378H64.6464C64.1265 30.3378 63.9417 30.5405 63.9417 31.0649C63.9417 31.5893 64.1284 31.7837 64.6464 31.7837H67.3699C69.2851 31.7837 69.8507 32.559 69.8507 34.2221C69.8507 35.8853 69.2972 36.706 67.3699 36.706H61.7699V34.8738H66.92C67.4277 34.8738 67.6237 34.6602 67.6237 34.1213C67.6237 33.5596 67.4044 33.4024 66.92 33.4024L64.1844 33.406Z" fill="#EDEDED"/>
<path d="M74.8477 36.7078C72.1588 36.7078 71.0052 35.7408 71.0052 33.4596V28.4929H73.2555V33.4596C73.2555 34.5166 73.6363 34.9319 74.8823 34.9319H75.6448C76.8581 34.9319 77.2604 34.5166 77.2604 33.4596V28.4929H79.464V33.4596C79.464 35.7408 78.2983 36.7078 75.6103 36.7078H74.8477Z" fill="#EDEDED"/>
<path d="M83.2039 34.9319H88.4203V36.7078H80.9415V28.4929H83.2039V34.9319Z" fill="#EDEDED"/>
<path d="M93.1168 28.4929H95.5631L99.6949 36.7078H97.4101L96.6364 35.1119H92.1125L91.3397 36.7078H88.9859L93.1168 28.4929ZM92.9208 33.4378H95.8141L94.36 30.4487L92.9208 33.4378Z" fill="#EDEDED"/>
<path d="M101.53 30.2687H98.5432V28.4929H106.783V30.2687H103.796V36.7078H101.534L101.53 30.2687Z" fill="#EDEDED"/>
<path d="M110.07 28.4929V36.7078H107.808V28.4929H110.07Z" fill="#EDEDED"/>
<path d="M111.351 32.6062C111.351 29.5044 112.113 28.3347 115.841 28.3347C119.568 28.3347 120.329 29.5035 120.329 32.6062C120.329 35.709 119.567 36.8778 115.841 36.8778C112.114 36.8778 111.351 35.7072 111.351 32.6062ZM113.578 32.6062C113.578 34.4375 113.89 35.0601 115.841 35.0601C117.791 35.0601 118.102 34.4421 118.102 32.6062C118.102 30.7704 117.79 30.1524 115.841 30.1524C113.891 30.1524 113.578 30.7704 113.578 32.6062Z" fill="#EDEDED"/>
<path d="M128.477 34.3148V28.4983H130.566V36.7133H127.819L123.712 31.0948V36.7133H121.613V28.4929H124.291L128.477 34.3148Z" fill="#EDEDED"/>
<path d="M134.328 33.406C132.413 33.406 131.835 32.5962 131.835 30.9222C131.835 29.3153 132.366 28.4947 134.328 28.4947H139.72V30.3378H134.793C134.274 30.3378 134.089 30.5405 134.089 31.0649C134.089 31.5893 134.276 31.7837 134.793 31.7837H137.516C139.432 31.7837 139.997 32.559 139.997 34.2221C139.997 35.8853 139.444 36.706 137.516 36.706H131.916V34.8738H137.064C137.571 34.8738 137.767 34.6602 137.767 34.1213C137.767 33.5596 137.548 33.4024 137.064 33.4024L134.328 33.406Z" fill="#EDEDED"/>
<path d="M48.7387 41.4492C47.8725 41.4492 47.5953 41.7437 47.5953 42.6643C47.5953 43.585 47.8753 43.874 48.7387 43.874H49.4797V45H50.2395V41.4492H48.7387ZM49.4797 43.206H48.7247C48.4139 43.206 48.3149 43.0751 48.3149 42.6607C48.3149 42.2462 48.4139 42.1154 48.7247 42.1154H49.4797V43.206Z" fill="#F53645"/>
<path d="M52.7585 41.4492V43.1533H52.067C51.7636 43.1533 51.6563 43.0569 51.6563 42.7897V41.4492H50.8975V42.9033C50.8975 43.6013 51.2251 43.8731 52.067 43.8731H53.5136V41.4492H52.7585Z" fill="#F53645"/>
<path d="M55.2599 41.4492H54.3909V42.0209H55.2309C55.6929 42.0209 55.8339 42.1035 55.8339 42.3762V42.4207H54.8072C54.2472 42.4207 54.0951 42.5689 54.0951 43.1133C54.0951 43.6822 54.2752 43.874 54.8072 43.874H56.5049V42.4198C56.5049 41.7137 56.168 41.4492 55.2599 41.4492ZM55.8311 43.3577H54.9733C54.8091 43.3577 54.7475 43.2859 54.7475 43.0924C54.7475 42.9106 54.8072 42.8497 54.9733 42.8497H55.832L55.8311 43.3577Z" fill="#F53645"/>
<path d="M57.1629 40.0187V43.874H57.9227V40.0187H57.1629Z" fill="#F53645"/>
<path d="M58.59 41.4492V43.874H59.3497V41.4492H58.59ZM58.6161 40.2586V40.9857H59.3133V40.2586H58.6161Z" fill="#F53645"/>
<path d="M61.6868 42.0481V41.4492H60.9821V40.5731H60.2261V41.4492H59.8407V42.0481H60.2261V43.0596C60.2261 43.6613 60.4856 43.8776 61.2164 43.8776H61.5897V43.2469H61.3097C61.0727 43.2469 60.9765 43.1705 60.9765 42.9833V42.0518L61.6868 42.0481Z" fill="#F53645"/>
<path d="M64.0808 41.4492L63.3873 43.1387L62.6939 41.4492H61.9257L63.0457 43.9621V43.9712C62.8889 44.3102 62.7116 44.3702 62.3924 44.3702H62.1068V45H62.3924C63.1624 45 63.3985 44.7592 63.6356 44.2193L64.8415 41.4492H64.0808Z" fill="#F53645"/>
<path d="M68.1912 42.4262H67.5183C67.368 42.4262 67.3055 42.3617 67.3055 42.2044C67.3055 42.0472 67.368 41.9945 67.5183 41.9945H68.8249V41.4492H67.3316C66.7389 41.4492 66.6195 41.7218 66.6195 42.1572C66.6195 42.6807 66.8117 42.8751 67.3316 42.8751H68.0045C68.1585 42.8751 68.2164 42.936 68.2164 43.0969C68.2164 43.2578 68.1529 43.3187 68.0045 43.3187H66.64V43.874H68.1949C68.7876 43.874 68.9071 43.5959 68.9071 43.1469C68.9033 42.6207 68.7101 42.4262 68.1912 42.4262Z" fill="#F53645"/>
<path d="M71.8275 42.8333V42.5416C71.8275 41.7746 71.6352 41.3856 70.5815 41.3856C69.5277 41.3856 69.3271 41.7891 69.3271 42.6379C69.3271 43.4868 69.5072 43.874 70.5731 43.874H71.4933V43.2968H70.6067C70.1633 43.2968 70.0177 43.1896 70.0084 42.857V42.8333H71.8275ZM70.0065 42.3598C70.0065 42.0227 70.1531 41.9145 70.6095 41.9145C71.0341 41.9145 71.1695 42.0227 71.1695 42.3598V42.4162H70.0056L70.0065 42.3598Z" fill="#F53645"/>
<path d="M73.3413 41.4492C72.6096 41.4492 72.3511 41.6619 72.3511 42.2671V43.8776H73.1108V42.3126C73.1108 42.1245 73.2041 42.049 73.444 42.049H73.7968V41.4501L73.3413 41.4492Z" fill="#F53645"/>
<path d="M76.1647 41.4492L75.4983 43.2014L74.8449 41.4492H74.0721L75.0708 43.874H75.9267L76.944 41.4492H76.1647Z" fill="#F53645"/>
<path d="M77.3733 41.4492V43.874H78.1331V41.4492H77.3733ZM77.4004 40.2586V40.9857H78.0967V40.2586H77.4004Z" fill="#F53645"/>
<path d="M79.8224 42.1172H80.8789V41.4492H79.8355C78.9703 41.4492 78.6931 41.7428 78.6931 42.6589C78.6931 43.575 78.9731 43.874 79.8355 43.874H80.8789V43.206H79.8224C79.5153 43.206 79.4127 43.0678 79.4127 42.6607C79.4127 42.2535 79.52 42.1172 79.8224 42.1172Z" fill="#F53645"/>
<path d="M83.818 42.5416C83.818 41.7746 83.6239 41.3856 82.572 41.3856C81.5043 41.3856 81.3167 41.7891 81.3167 42.6379C81.3167 43.4868 81.4968 43.874 82.5627 43.874H83.4811V43.2968H82.5935C82.1511 43.2968 82.0045 43.1896 81.9961 42.857V42.8333H83.8189L83.818 42.5416ZM83.1647 42.4162H81.9999V42.3598C81.9999 42.0227 82.1455 41.9145 82.6028 41.9145C83.0275 41.9145 83.1628 42.0227 83.1628 42.3598L83.1647 42.4162Z" fill="#F53645"/>
<path d="M86.8084 41.4492V41.0139C86.8084 40.7085 86.9568 40.6503 87.2135 40.6503H87.4599V40.0205H87.1799C86.3399 40.0205 86.0552 40.2559 86.0552 40.9575V41.451H85.6697V42.0499H86.0533V43.8758H86.8084V42.0499H87.5047V41.451L86.8084 41.4492Z" fill="#F53645"/>
<path d="M88.9467 41.4492C88.2159 41.4492 87.9564 41.6619 87.9564 42.2671V43.8776H88.7161V42.3126C88.7161 42.1245 88.8095 42.049 89.0493 42.049H89.4021V41.4501L88.9467 41.4492Z" fill="#F53645"/>
<path d="M91 41.3856C89.908 41.3856 89.7232 41.7782 89.7232 42.6579C89.7232 43.5377 89.9099 43.9303 91 43.9303C92.0901 43.9303 92.2824 43.5377 92.2824 42.6579C92.2824 41.7782 92.1013 41.3856 91 41.3856ZM91 43.2805C90.4932 43.2805 90.4111 43.0987 90.4111 42.6589C90.4111 42.219 90.4932 42.0418 91 42.0418C91.5068 42.0418 91.5899 42.2235 91.5899 42.6589C91.5899 43.0942 91.5115 43.2805 91 43.2805Z" fill="#F53645"/>
<path d="M95.6872 41.4492H92.8443V43.874H93.5863V42.1708H94.5037V43.874H95.1739V42.1708H95.6872C95.9859 42.1708 96.0932 42.2617 96.0932 42.5343V43.8721H96.8343V42.418C96.8343 41.7118 96.5235 41.4492 95.6872 41.4492Z" fill="#F53645"/>
<path d="M100.538 41.4492H99.0369V45H99.7967V43.874H100.538C101.403 43.874 101.681 43.5804 101.681 42.6643C101.681 41.7482 101.403 41.4492 100.538 41.4492ZM100.552 43.206H99.7967V42.1154H100.552C100.858 42.1154 100.961 42.2535 100.961 42.6607C100.961 43.0678 100.858 43.206 100.552 43.206Z" fill="#F53645"/>
<path d="M104.631 42.8333V42.5416C104.631 41.7746 104.439 41.3856 103.386 41.3856C102.319 41.3856 102.132 41.7891 102.132 42.6379C102.132 43.4868 102.312 43.874 103.378 43.874H104.295V43.2968H103.413C102.97 43.2968 102.824 43.1896 102.815 42.857V42.8333H104.631ZM102.81 42.3598C102.81 42.0227 102.957 41.9145 103.413 41.9145C103.839 41.9145 103.973 42.0227 103.973 42.3598V42.4162H102.809L102.81 42.3598Z" fill="#F53645"/>
<path d="M106.333 41.3856C105.241 41.3856 105.056 41.7782 105.056 42.6579C105.056 43.5377 105.243 43.9303 106.333 43.9303C107.423 43.9303 107.615 43.5377 107.615 42.6579C107.615 41.7782 107.427 41.3856 106.333 41.3856ZM106.333 43.2805C105.826 43.2805 105.744 43.0987 105.744 42.6589C105.744 42.219 105.826 42.0418 106.333 42.0418C106.84 42.0418 106.922 42.2235 106.922 42.6589C106.922 43.0942 106.841 43.2805 106.333 43.2805Z" fill="#F53645"/>
<path d="M109.675 41.4492H108.173V45H108.933V43.874H109.68C110.545 43.874 110.822 43.5804 110.822 42.6643C110.822 41.7482 110.54 41.4492 109.675 41.4492ZM109.689 43.206H108.933V42.1154H109.689C109.995 42.1154 110.098 42.2535 110.098 42.6607C110.098 43.0678 109.995 43.206 109.689 43.206Z" fill="#F53645"/>
<path d="M111.376 40.0187V43.874H112.135V40.0187H111.376Z" fill="#F53645"/>
<path d="M115.195 42.8333V42.5416C115.195 41.7746 115.003 41.3856 113.95 41.3856C112.897 41.3856 112.695 41.7891 112.695 42.6379C112.695 43.4868 112.875 43.874 113.941 43.874H114.859V43.2968H113.972C113.529 43.2968 113.383 43.1896 113.374 42.857V42.8333H115.195ZM113.374 42.3598C113.374 42.0227 113.52 41.9145 113.977 41.9145C114.402 41.9145 114.537 42.0227 114.537 42.3598V42.4162H113.372L113.374 42.3598Z" fill="#F53645"/>
<path d="M118.892 42.0481V41.4492H118.187V40.5731H117.432V41.4492H117.047V42.0481H117.432V43.0596C117.432 43.6613 117.691 43.8776 118.421 43.8776H118.795V43.2469H118.515C118.281 43.2469 118.181 43.1678 118.181 42.9833V42.0518L118.892 42.0481Z" fill="#F53645"/>
<path d="M120.508 41.3856C119.414 41.3856 119.231 41.7782 119.231 42.6579C119.231 43.5377 119.417 43.9303 120.508 43.9303C121.599 43.9303 121.789 43.5377 121.789 42.6579C121.789 41.7782 121.604 41.3856 120.508 41.3856ZM120.508 43.2805C120 43.2805 119.917 43.0987 119.917 42.6589C119.917 42.219 120 42.0418 120.508 42.0418C121.017 42.0418 121.097 42.2235 121.097 42.6589C121.097 43.0942 121.015 43.2805 120.508 43.2805Z" fill="#F53645"/>
<path d="M125.347 41.4492H123.845V45H124.6V43.874H125.347C126.211 43.874 126.489 43.5804 126.489 42.6643C126.489 41.7482 126.207 41.4492 125.347 41.4492ZM125.36 43.206H124.6V42.1154H125.354C125.66 42.1154 125.764 42.2535 125.764 42.6607C125.764 43.0678 125.662 43.206 125.356 43.206H125.36Z" fill="#F53645"/>
<path d="M129.437 42.5416C129.437 41.7746 129.244 41.3856 128.191 41.3856C127.137 41.3856 126.936 41.7891 126.936 42.6379C126.936 43.4868 127.117 43.874 128.182 43.874H129.101V43.2968H128.214C127.77 43.2968 127.625 43.1896 127.616 42.857V42.8333H129.437L129.437 42.5416ZM128.783 42.4162H127.619V42.3598C127.619 42.0227 127.766 41.9145 128.221 41.9145C128.647 41.9145 128.781 42.0227 128.781 42.3598L128.783 42.4162Z" fill="#F53645"/>
<path d="M131.138 41.3856C130.046 41.3856 129.861 41.7782 129.861 42.6579C129.861 43.5377 130.048 43.9303 131.138 43.9303C132.228 43.9303 132.419 43.5377 132.419 42.6579C132.419 41.7782 132.235 41.3856 131.138 41.3856ZM131.138 43.2805C130.631 43.2805 130.549 43.0987 130.549 42.6589C130.549 42.219 130.631 42.0418 131.138 42.0418C131.645 42.0418 131.727 42.2235 131.727 42.6589C131.727 43.0942 131.645 43.2805 131.138 43.2805Z" fill="#F53645"/>
<path d="M134.479 41.4492H132.979V45H133.738V43.874H134.479C135.345 43.874 135.623 43.5804 135.623 42.6643C135.623 41.7482 135.345 41.4492 134.479 41.4492ZM134.493 43.206H133.738V42.1154H134.493C134.799 42.1154 134.903 42.2535 134.903 42.6607C134.903 43.0678 134.799 43.206 134.493 43.206Z" fill="#F53645"/>
<path d="M136.181 40.0187V43.874H136.941V40.0187H136.181Z" fill="#F53645"/>
<path d="M140 42.5416C140 41.7746 139.808 41.3856 138.754 41.3856C137.7 41.3856 137.5 41.7891 137.5 42.6379C137.5 43.4868 137.679 43.874 138.746 43.874H139.664V43.2968H138.777C138.333 43.2968 138.188 43.1896 138.179 42.857V42.8333H140V42.5416ZM139.347 42.4162H138.183V42.3598C138.183 42.0227 138.329 41.9145 138.785 41.9145C139.21 41.9145 139.345 42.0227 139.345 42.3598L139.347 42.4162Z" fill="#F53645"/>
</svg>
